<?xml version="1.0" encoding="utf-8"?>
<!-- Generator: Adobe Illustrator 22.1.0, SVG Export Plug-In . SVG Version: 6.00 Build 0)  -->
<svg version="1.1"
	 id="SVGRoot" xmlns:cc="http://creativecommons.org/ns#" xmlns:dc="http://purl.org/dc/elements/1.1/" xmlns:rdf="http://www.w3.org/1999/02/22-rdf-syntax-ns#" xmlns:svg="http://www.w3.org/2000/svg"
	 xmlns="http://www.w3.org/2000/svg" xmlns:xlink="http://www.w3.org/1999/xlink" x="0px" y="0px" viewBox="0 0 629.50232 79.83447"
	 style="enable-background:new 0 0 629.50232 79.83447;" xml:space="preserve">
<style type="text/css">
	.st0{fill:#FF0000;}
	.st1{fill:#FFFFFF;}
	.st2{fill:#282828;}
</style>
<path id="path6" class="st0" d="M111.66897,12.46437c-1.32328-4.91797-5.16479-8.75948-10.08276-10.08276
	C92.68966,0,57.01149,0,57.01149,0S21.36092,0,12.46437,2.38161C7.5464,3.70489,3.70489,7.5464,2.38161,12.46437
	C0,21.36092,0,39.91724,0,39.91724s0,18.55632,2.38161,27.45288c1.32328,4.91796,5.16479,8.75948,10.08276,10.08275
	c8.89655,2.38161,44.56092,2.38161,44.56092,2.38161s35.66437,0,44.56092-2.38161
	c4.91797-1.32327,8.75948-5.16479,10.08276-10.08275c2.38161-8.89655,2.38161-27.45288,2.38161-27.45288
	S114.05058,21.36092,111.66897,12.46437z"/>
<path id="path8" class="st1" d="M45.61839,57.02529l29.63218-17.10805L45.61839,22.8092V57.02529z"/>
<path id="path10" class="st2" d="M405.43335,25.33333v2.75862c0,13.7931-6.11496,21.85287-19.48965,21.85287h-2.03677v24.13794
	h-10.92416V5.68276h13.92645C399.64484,5.68276,405.43335,11.06667,405.43335,25.33333z M393.93909,26.31264
	C393.93909,16.36322,392.146,14,385.94827,14h-2.03677v27.8069h1.87585c5.87125,0,8.15631-4.23908,8.15631-13.45287
	L393.93909,26.31264z M431.28162,23.29655l-0.5701,12.96552c-4.64828-0.97931-8.48279-0.24368-10.19312,2.75862v35.06208H409.677
	V24.11034h8.64368l0.97934,10.83218h0.40918c1.14026-7.90804,4.8092-11.90345,9.54025-11.90345
	C429.93359,23.05847,430.61423,23.14471,431.28162,23.29655L431.28162,23.29655z M443.75519,52.87356v2.52874
	c0,8.8092,0.48734,11.82529,4.23907,11.82529c3.58621,0,4.4046-2.75862,4.48276-8.47816l9.70114,0.57012
	c0.73566,10.76322-4.89194,15.57241-14.43219,15.57241c-11.577,0-15.00229-7.58161-15.00229-21.36092V44.7954
	c0-14.51494,3.83447-21.6092,15.32874-21.6092c11.577,0,14.51495,6.03218,14.51495,21.11724v8.57011H443.75519z M443.75519,42.5977
	v3.58621h8.23447v-3.56322c0-9.1954-0.65286-11.82529-4.13791-11.82529c-3.48508,0-4.09656,2.69425-4.09656,11.82529V42.5977z
	 M518.61035,36.32184v37.75172h-11.24139V37.15862c0-4.07816-1.06207-6.11494-3.50803-6.11494
	c-1.95865,0-3.75174,1.14023-4.97473,3.25977c0.06989,0.67655,0.0975,1.3568,0.08276,2.03678v37.75172H487.7092V37.15862
	c0-4.07816-1.06207-6.11494-3.50806-6.11494c-1.95862,0-3.67816,1.14023-4.89197,3.18161v39.87127h-11.25055V24.11034h8.88736
	l0.99768,6.36322h0.16092c2.52875-4.80919,6.6069-7.42069,11.41611-7.42069c4.73102,0,7.42068,2.36322,8.64368,6.6069
	c2.61148-4.32184,6.52414-6.6069,11.0069-6.6069C516.00342,23.05288,518.61035,27.94483,518.61035,36.32184z M524.23792,11.31034
	c0-5.38391,1.95862-6.92874,6.11493-6.92874c4.23907,0,6.11499,1.7931,6.11499,6.92874c0,5.54483-1.87592,6.93334-6.11499,6.93334
	C526.19653,18.23908,524.23792,16.85517,524.23792,11.31034z M524.89081,24.11034h10.76318v49.98621h-10.76318V24.11034z
	 M572.42645,24.11034v49.98621h-8.80463l-0.97931-6.11494h-0.24371c-2.52869,4.89196-6.19769,6.92873-10.76318,6.92873
	c-6.68506,0-9.70575-4.23908-9.70575-13.45287V24.11034h11.25055V60.8046c0,4.4046,0.91956,6.1977,3.18164,6.1977
	c2.06744-0.08447,3.91687-1.31033,4.79999-3.18161V24.11034H572.42645z M629.50232,36.32184v37.75172h-11.25061V37.15862
	c0-4.07816-1.06207-6.11494-3.50806-6.11494c-1.95862,0-3.75171,1.14023-4.97473,3.25977
	c0.06915,0.67045,0.0968,1.34453,0.08282,2.01839v37.75172h-11.25061V37.15862c0-4.07816-1.06207-6.11494-3.50806-6.11494
	c-1.95862,0-3.67816,1.14023-4.89197,3.18161v39.87127h-11.25055V24.11034h8.87817l0.97931,6.35862h0.16089
	c2.52875-4.80919,6.60693-7.42069,11.41614-7.42069c4.73102,0,7.42065,2.36322,8.64368,6.6069
	c2.61145-4.32184,6.52411-6.6069,11.0069-6.6069C626.90918,23.05287,629.50232,27.94483,629.50232,36.32184z"/>
<g>
	<g>
		<path class="st2" d="M165.5428,72.57318c-2.25699-1.52131-3.86127-3.88694-4.81192-7.09549
			c-0.95203-3.20764-1.42735-7.47549-1.42735-12.8049v-7.25867c0-5.38304,0.54271-9.70589,1.63087-12.96807
			c1.08723-3.26219,2.78593-5.64019,5.09747-7.13629c2.31062-1.49473,5.34224-2.24278,9.09396-2.24278
			c3.69717,0,6.66005,0.7618,8.88998,2.28358c2.22905,1.52269,3.85989,3.90206,4.89352,7.13629
			c1.03224,3.2356,1.54973,7.54424,1.54973,12.92728v7.25867c0,5.32941-0.50328,9.61147-1.50893,12.84569
			c-1.00656,3.2356-2.63789,5.60076-4.89352,7.09549c-2.25697,1.49474-5.3152,2.24278-9.17555,2.24278
			C170.91164,74.85676,167.79842,74.09496,165.5428,72.57318z M178.18452,64.74339c0.62428-1.63087,0.93781-4.29442,0.93781-7.99252
			v-15.578c0-3.58855-0.31352-6.21131-0.93781-7.87059c-0.62567-1.65791-1.72713-2.48755-3.30345-2.48755
			c-1.52269,0-2.59709,0.82964-3.22139,2.48755c-0.62567,1.65928-0.93782,4.28205-0.93782,7.87059v15.578
			c0,3.69809,0.29794,6.36165,0.89702,7.99252c0.59772,1.63132,1.68449,2.44675,3.26219,2.44675
			C176.4574,67.19014,177.55885,66.37471,178.18452,64.74339z"/>
		<path class="st2" d="M338.76999,52.79153v2.52845c0,3.20881,0.09351,5.61485,0.28516,7.21811
			c0.18982,1.60463,0.58316,2.77327,1.18283,3.50727c0.59787,0.73401,1.52121,1.10125,2.77283,1.10125
			c1.68442,0,2.84067-0.65286,3.46603-1.95766c0.62442-1.3048,0.9646-3.47931,1.01959-6.52491l9.70578,0.57079
			c0.05408,0.43601,0.0816,1.03385,0.0816,1.79445c0,4.62226-1.26447,8.07452-3.79245,10.35815
			c-2.52798,2.28363-6.10403,3.42567-10.72537,3.42567c-5.54562,0-9.43436-1.73942-11.66342-5.2201
			c-2.22998-3.47886-3.34406-8.86172-3.34406-16.1486V44.717c0-7.50328,1.15533-12.98059,3.46692-16.43422
			c2.31067-3.45226,6.26636-5.17931,11.86697-5.17931c3.86032,0,6.82294,0.70741,8.88968,2.12087
			c2.06586,1.41437,3.52011,3.61639,4.36371,6.60606c0.84265,2.99104,1.26443,7.12413,1.26443,12.39742v8.56371H338.76999z
			 M340.19672,31.74925c-0.57031,0.70696-0.95175,1.86275-1.14157,3.46601c-0.19165,1.60463-0.28516,4.03727-0.28516,7.29972
			v3.58888h8.23682v-3.58888c0-3.20744-0.10913-5.64052-0.3255-7.29972c-0.21826-1.65782-0.6116-2.82645-1.18286-3.50682
			c-0.57126-0.67945-1.45517-1.01963-2.65085-1.01963C341.65097,30.68881,340.76797,31.04321,340.19672,31.74925z"/>
		<path class="st2" d="M138.13571,51.85547l-12.8049-46.24448h11.17357l4.48558,20.96105
			c1.14223,5.16624,1.98425,9.57021,2.52834,13.21238h0.32635c0.37997-2.60994,1.22337-6.98595,2.52835-13.13079l4.64873-21.04264
			h11.17404l-12.96808,46.24448V74.041h-11.09198V51.85547z"/>
		<path class="st2" d="M226.79962,24.04508v49.99574h-8.8084l-0.97906-6.11688h-0.24431
			c-2.39359,4.62216-5.98213,6.93232-10.76608,6.93232c-3.3172,0-5.76396-1.08678-7.34027-3.26218
			c-1.5777-2.17403-2.36517-5.57281-2.36517-10.19497V24.04508h11.25516v36.70177c0,2.22995,0.24477,3.82047,0.73384,4.77113
			c0.48953,0.95203,1.30498,1.42735,2.44676,1.42735c0.97906,0,1.91687-0.29839,2.81392-0.89748
			c0.89748-0.59771,1.56256-1.35813,1.99846-2.28357V24.04508H226.79962z"/>
		<path class="st2" d="M284.53168,24.04508v49.99574h-8.80841l-0.97906-6.11688h-0.24429
			c-2.39359,4.62216-5.98215,6.93232-10.76608,6.93232c-3.3172,0-5.76398-1.08678-7.34027-3.26218
			c-1.57768-2.17403-2.36517-5.57281-2.36517-10.19497V24.04508h11.25516v36.70177c0,2.22995,0.24478,3.82047,0.73386,4.77113
			c0.48953,0.95203,1.30496,1.42735,2.44675,1.42735c0.97906,0,1.9169-0.29839,2.8139-0.89748
			c0.89749-0.59771,1.56256-1.35813,1.99847-2.28357V24.04508H284.53168z"/>
		<path class="st2" d="M257.38388,14.66557h-11.17357v59.37527h-11.01038V14.66557h-11.17358V5.6124h33.35753V14.66557z"/>
		<path class="st2" d="M321.78226,32.03706c-0.68073-3.15261-1.78168-5.43623-3.30344-6.85072
			c-1.52267-1.41312-3.61649-2.12042-6.28-2.12042c-2.0668,0-3.99652,0.58491-5.79059,1.75336
			c-1.79449,1.16971-3.18103,2.70568-4.15961,4.60837h-0.08261l0.00104-26.34412h-10.84723v70.95679h9.29739l1.14188-4.7303h0.24475
			c0.86902,1.68587,2.17395,3.01739,3.91483,3.99652c1.7395,0.97856,3.67014,1.46767,5.79105,1.46767
			c3.8049,0,6.60593-1.75325,8.40042-5.26021c1.79407-3.50742,2.69159-8.98444,2.69159-16.43429v-7.91134
			C322.80173,39.56896,322.46115,35.19162,321.78226,32.03706z M311.4649,52.43021c0,3.64356-0.15033,6.49822-0.44873,8.56352
			c-0.29935,2.06736-0.80255,3.53538-1.50894,4.40449c-0.70718,0.8705-1.65927,1.30494-2.85422,1.30494
			c-0.92538,0-1.78168-0.2167-2.56918-0.65263c-0.78879-0.43456-1.42734-1.08686-1.91678-1.95724V35.71035
			c0.37988-1.35811,1.0322-2.47327,1.95758-3.34377c0.92368-0.86901,1.92926-1.30494,3.01752-1.30494
			c1.14172,0,2.02505,0.44877,2.65067,1.34573c0.62433,0.89697,1.06015,2.40601,1.30493,4.52677
			c0.24478,2.12043,0.36716,5.13793,0.36716,9.05274V52.43021z"/>
	</g>
</g>
</svg>
